/* XPM */
static char * sparks16_xpm[] = {
"16 16 257 2",
"  	c None",
". 	c #871715",
"+ 	c #C21515",
"@ 	c #861614",
"# 	c #C21516",
"$ 	c #020000",
"% 	c #020000",
"& 	c #881816",
"* 	c #C21617",
"= 	c #FEFEFE",
"- 	c #47704C",
"; 	c #871614",
"> 	c #861513",
", 	c #C21718",
"' 	c #C31718",
") 	c #871816",
"! 	c #881715",
"~ 	c #851311",
"{ 	c #800E0D",
"] 	c #800C0B",
"^ 	c #C00F10",
"/ 	c #81100F",
"( 	c #C11112",
"_ 	c #C31617",
": 	c #7C0807",
"< 	c #861311",
"[ 	c #841715",
"} 	c #C00C0D",
"| 	c #830F0E",
"1 	c #820E0C",
"2 	c #811614",
"3 	c #FEFCFC",
"4 	c #821110",
"5 	c #7E1715",
"6 	c #C10F10",
"7 	c #85110F",
"8 	c #FCF9F9",
"9 	c #820C0B",
"0 	c #BF0D0E",
"a 	c #7F0C0B",
"b 	c #C21515",
"c 	c #FEFDFD",
"d 	c #FDFBFB",
"e 	c #7F0E0C",
"f 	c #7F0A09",
"g 	c #7F1312",
"h 	c #C21314",
"i 	c #7D0807",
"j 	c #800A08",
"k 	c #BE1213",
"l 	c #7E100F",
"m 	c #FBF6F6",
"n 	c #851412",
"o 	c #7D0B0A",
"p 	c #892424",
"q 	c #9D4645",
"r 	c #DCBCBB",
"s 	c #98403F",
"t 	c #F3E7E7",
"u 	c #8F2E2D",
"v 	c #861615",
"w 	c #9D4948",
"x 	c #CA9A9A",
"y 	c #E7D0D0",
"z 	c #C01111",
"A 	c #831715",
"B 	c #9B4242",
"C 	c #C01515",
"D 	c #C81617",
"E 	c #973C3C",
"F 	c #903131",
"G 	c #D9B5B4",
"H 	c #C51617",
"I 	c #7A0C0B",
"J 	c #BD0E0F",
"K 	c #FAF4F3",
"L 	c #F1E4E4",
"M 	c #8B2828",
"N 	c #C48E8E",
"O 	c #BE0A0A",
"P 	c #872020",
"Q 	c #EEDFDF",
"R 	c #881815",
"S 	c #C42728",
"T 	c #F6EEEE",
"U 	c #881916",
"V 	c #841A1A",
"W 	c #CD9E9D",
"X 	c #8D2B2A",
"Y 	c #AB605F",
"Z 	c #E3C8C8",
"` 	c #F5ECEC",
" .	c #953A39",
"..	c #F8F2F2",
"+.	c #DEC0BF",
"@.	c #D7B1B1",
"#.	c #C99696",
"$.	c #D5AFAE",
"%.	c #A25251",
"&.	c #A85958",
"*.	c #E6CECE",
"=.	c #C52D2D",
"-.	c #AC6362",
";.	c #E8D4D3",
">.	c #ECDADA",
",.	c #C28A8A",
"'.	c #CD1617",
").	c #E5CCCC",
"!.	c #923535",
"~.	c #F7F0F0",
"{.	c #EBB5B5",
"].	c #D1A7A6",
"^.	c #CB1617",
"/.	c #C32323",
"(.	c #FBF8F7",
"_.	c #9E1716",
":.	c #BB7E7D",
"<.	c #BD8382",
"[.	c #7A0707",
"}.	c #0D0101",
"|.	c #E2C7C6",
"1.	c #DAB7B7",
"2.	c #AF6766",
"3.	c #8D2423",
"4.	c #BC807F",
"5.	c #F4EAEA",
"6.	c #CC4242",
"7.	c #E1C4C4",
"8.	c #F0E1E1",
"9.	c #A04E4D",
"0.	c #EAD7D7",
"a.	c #CF4D4D",
"b.	c #C21F1F",
"c.	c #CD4848",
"d.	c #8B1F1E",
"e.	c #C93636",
"f.	c #BB0A0A",
"g.	c #B57473",
"h.	c #D4ACAB",
"i.	c #C08786",
"j.	c #A85D5C",
"k.	c #841E1E",
"l.	c #C73132",
"m.	c #821A19",
"n.	c #D25858",
"o.	c #E18E8E",
"p.	c #F8E6E6",
"q.	c #B36F6F",
"r.	c #953636",
"s.	c #F6DADA",
"t.	c #BF1112",
"u.	c #EFC3C3",
"v.	c #F9EAEA",
"w.	c #D2A9A8",
"x.	c #881B1A",
"y.	c #C79392",
"z.	c #CB3B3B",
"A.	c #CFA1A0",
"B.	c #D0A4A3",
"C.	c #0E0000",
"D.	c #0C0101",
"E.	c #961514",
"F.	c #C31515",
"G.	c #D86C6D",
"H.	c #A55453",
"I.	c #C11819",
"J.	c #B26B6A",
"K.	c #EAD5D5",
"L.	c #EFC0C1",
"M.	c #A55756",
"N.	c #EDDDDD",
"O.	c #DC7879",
"P.	c #B71717",
"Q.	c #F7E1E1",
"R.	c #D20101",
"S.	c #D66565",
"T.	c #BA7978",
"U.	c #E29292",
"V.	c #D05354",
"W.	c #E9ABAC",
"X.	c #E69B9C",
"Y.	c #F2CCCC",
"Z.	c #F1CACA",
"`.	c #FAEDEE",
" +	c #D86969",
".+	c #EDBCBC",
"++	c #A41515",
"@+	c #DD8181",
"#+	c #E2CACA",
"$+	c #DA7272",
"%+	c #AF0C0F",
"&+	c #B87776",
"*+	c #DD7D7D",
"=+	c #A44B4A",
"-+	c #C11C1C",
";+	c #E08A8B",
">+	c #A44F4E",
",+	c #B21414",
"'+	c #AF6A69",
")+	c #E69F9F",
"!+	c #C21415",
"~+	c #C31415",
"{+	c #C21516",
"]+	c #F4D4D4",
"^+	c #DF8585",
"/+	c #BA7A79",
"(+	c #921716",
"_+	c #BA7C7B",
":+	c #F3D0D1",
"<+	c #971615",
"[+	c #AA1716",
"}+	c #984544",
"|+	c #8B1615",
"1+	c #D66161",
"2+	c #E8A8A8",
"3+	c #C21516",
"4+	c #C21313",
"5+	c #C21315",
"6+	c #8F1513",
"7+	c #8A1614",
"8+	c #981412",
"9+	c #0C0101",
"0+	c #8A1614",
"a+	c #BF1515",
"b+	c #A01313",
"c+	c #941514",
"d+	c #E39697",
"e+	c #D35B5B",
"f+	c #BB1515",
"g+	c #F4D7D7",
"h+	c #B67878",
"i+	c #E8D5D5",
"j+	c #C21414",
"k+	c #C61313",
"l+	c #C21515",
"m+	c #C21315",
"n+	c #981512",
"o+	c #A50C0C",
"p+	c #981514",
"q+	c #E7A5A5",
"r+	c #F0C8C8",
"s+	c #EAAFB0",
"t+	c #C86C6C",
"u+	c #C21214",
"v+	c #C31111",
"w+	c #8E1513",
"x+	c #881614",
"y+	c #8F1513",
"z+	c #CC1516",
"A+	c #A73939",
"B+	c #C82021",
"C+	c #9D1515",
"D+	c #911614",
"E+	c #7B1614",
"F+	c #F2DFDF",
"G+	c #CCA9A9",
"H+	c #BA3939",
"  * * * * * * * * , S P.<+! .   ",
"* * * * * * * * /.$+].X . . . . ",
"* * * * * * * e.W.~.,.) . . . . ",
"* * * * * * c.Z.d ` }+. . . . . ",
"* * * * * 6.:+c = L !.. . . . . ",
"* * * * /.{.3 = = ~.%.. . . . . ",
"* * * * e+..= = (.#+g.P . . . . ",
"* * * * o.d = ..@.0.~.q.. . . . ",
"* * * * $+~.N.G+L = 8 4.. . . . ",
"* * * * e.N $.~.= = T 9.. . . . ",
"* * * * =.r +.= = d G+d.. . . . ",
"* * * * S {.1.c c #+ .. . . . . ",
"* * * * =.A.#+d #+}+. . . . . . ",
"* * * * z.N 8.G+!.. . . . . . . ",
"* * * * 6.h+g.p . . . . . . . . ",
"  * * f+(+d.) . . . . . . . .   "};
