/* XPM */
static char *sparks64[] = {
/* columns rows colors chars-per-pixel */
"64 64 3 1 ",
"  c black",
". c #FF5555",
"X c None",
/* pixels */
"XXXXXXXXXXXXXXXXXXXXXXXXXXXXXXXXXXXXXXXXXXXXXXXXXXXXXXXXXXXXXXXX",
"XXXXXXXXXXXXXXXXXXXXXXXXXXXXX.XXXXXXXXXXXXXXXXXXXXXXXXXXXXXXXXXX",
"XXXXXXXXXXXXXXXXXXXXXXXXXXXXX..XXXXXXXXXXXXXXXXXXXXXXXXXXXXXXXXX",
"XXXXXXXXXXXXXXXXXXXXXXXXXXXXXX...XXXXXXXXXXXXXXXXXXXXXXXXXXXXXXX",
"XXXXXXXXXXXXXXXXXXXXXXXXXXXXXXX...XXXXXXXXXXXXXXXXXXXXXXXXXXXXXX",
"XXXXXXXXXXXXXXXXXXXXXXXXXXXXXXX.....XXXXXXXXXXXXXXXXXXXXXXXXXXXX",
"XXXXXXXXXXXXXXXXXXXXXXXXXXXXXXXX.....XXXXXXXXXXXXXXXXXXXXXXXXXXX",
"XXXXXXXXXXXXXXXXXXXXXXXXXXXXXXXX......XXXXXXXXXXXXXXXXXXXXXXXXXX",
"XXXXXXXXXXXXXXXXXXXXXXXXXXXXXXXX.......XXXXXXXXXXXXXXXXXXXXXXXXX",
"XXXXXXXXXXXXXXXXXXXXXXXXXXXXXXXXX.......XXXXXXXXXXXXXXXXXXXXXXXX",
"XXXXXXXXXXXXXXXXXXXXXXXXXXXXXXXXX.......XXXXXXXXXXXXXXXXXXXXXXXX",
"XXXXXXXXXXXXXXXXXXXXXXXXXXXXXXXXX........XXXXXXXXXXXXXXXXXXXXXXX",
"XXXXXXXXXXXXXXXXXXXXXXXXXXXXXXXXX.........XXXXXXXXXXXXXXXXXXXXXX",
"XXXXXXXXXXXXXXXXXXXXXXXXXXXXXXXXX.........XXXXXXXXXXXXXXXXXXXXXX",
"XXXXXXXXXXXXXXXXXXXXXXXXXXXXXXXXXX.........XXXXXXXXXXXXXXXXXXXXX",
"XXXXXXXXXXXXXXXXXXXXXXXXXXXXXXXXXX.........XXXXXXXXXXXXXXXXXXXXX",
"XXXXXXXXXXXXXXXXXXXXXXXXXXXXXXXXXX..........XXXXXXXXXXXXXXXXXXXX",
"XXXXXXXXXXXXXXXXXXXXXXXXXXXXXXXXXX..........XXXXXXXXXXXXXXXXXXXX",
"XXXXXXXXXXXXXXX.XXXXXXXXXXXXXXXXXX..........XXXXXXXXXXXXXXXXXXXX",
"XXXXXXXXXXXXXXX.XXXXXXXXXXXXXXXXX............XXXXXXXXXXXXXXXXXXX",
"XXXXXXXXXXXXXX..XXXXXXXXXXXXXXXXX............XXXXXXXXXXXXXXXXXXX",
"XXXXXXXXXXXXXX..XXXXXXXXXXXXXXXXX............XXXXXXXXXXXXXXXXXXX",
"XXXXXXXXXXXXX...XXXXXXXXXXXXXXXXX............XXXXXXXXXXXXXXXXXXX",
"XXXXXXXXXXXXX...XXXXXXXXXXXXXXXX.............XXXXXXXXXXXXXXXXXXX",
"XXXXXXXXXXXXX...XXXXXXXXXXXXXXXX.............XXXXXXXXXXXXXXXXXXX",
"XXXXXXXXXXXX.....XXXXXXXXXXXXXX..............XXXXXXXXXXXXXXXXXXX",
"XXXXXXXXXXXX......XXXXXXXXXXXX...............XXX XXXXXXXXXXXXXXX",
"XXXXXXXXXXXX.......XXXXXXXXXX................XXX XXXXXXXXXXXXXXX",
"XXXXXXXXXXXX.........XXXXX...................XXX  XXXXXXXXXXXXXX",
"XXXXXXXXXXX..................................XXX  XXXXXXXXXXXXXX",
"XXXXXXXXXXX.................................XXX    XXXXXXXXXXXXX",
"XXXXXXXXXXX.................................XXX    XXXXXXXXXXXXX",
"XXXXXXXXXXX.................................XXX     XXXXXXXXXXXX",
"XXXXXXXXXX.................................XXXX     XXXXXXXXXXXX",
"XXXXXXXXXX.................................XXX      XXXXXXXXXXXX",
"XXXXXXXXXX.................................XXX       XXXXXXXXXXX",
"XXXXXXXXXX................................XXXX       XXXXXXXXXXX",
"XXXXXXXXXX................................XXX        XXXXXXXXXXX",
"XXXXXXXXXX...............................XXXX        XXXXXXXXXXX",
"XXXXXXXXXX...............................XXXX         XXXXXXXXXX",
"XXXXXXXXXX..............................XXXX          XXXXXXXXXX",
"XXXXXXXXXX.............................XXXXX          XXXXXXXXXX",
"XXXXXXXXXXX............................XXXX           XXXXXXXXXX",
"XXXXXXXXXXX...........................XXXX           XXXXXXXXXXX",
"XXXXXXXXXXX..........................XXXXX           XXXXXXXXXXX",
"XXXXXXXXXXX.........................XXXXX            XXXXXXXXXXX",
"XXXXXXXXXXXX........................XXXX             XXXXXXXXXXX",
"XXXXXXXXXXXX.......................XXXX             XXXXXXXXXXXX",
"XXXXXXXXXXXXX.....................XXXXX             XXXXXXXXXXXX",
"XXXXXXXXXXXXX.....................XXXX             XXXXXXXXXXXXX",
"XXXXXXXXXXXXXX...................XXXX              XXXXXXXXXXXXX",
"XXXXXXXXXXXXXX...................XXXX             XXXXXXXXXXXXXX",
"XXXXXXXXXXXXXXX..................XXX             XXXXXXXXXXXXXXX",
"XXXXXXXXXXXXXXXX................XXXX            XXXXXXXXXXXXXXXX",
"XXXXXXXXXXXXXXXXX...............XXXX           XXXXXXXXXXXXXXXXX",
"XXXXXXXXXXXXXXXXXX..............XXX           XXXXXXXXXXXXXXXXXX",
"XXXXXXXXXXXXXXXXXXX.............XXX         XXXXXXXXXXXXXXXXXXXX",
"XXXXXXXXXXXXXXXXXXXXX...........XXX        XXXXXXXXXXXXXXXXXXXXX",
"XXXXXXXXXXXXXXXXXXXXXX..........XXX       XXXXXXXXXXXXXXXXXXXXXX",
"XXXXXXXXXXXXXXXXXXXXXXXX........XXX     XXXXXXXXXXXXXXXXXXXXXXXX",
"XXXXXXXXXXXXXXXXXXXXXXXXXX......XXX    XXXXXXXXXXXXXXXXXXXXXXXXX",
"XXXXXXXXXXXXXXXXXXXXXXXXXXXX.....XXX  XXXXXXXXXXXXXXXXXXXXXXXXXX",
"XXXXXXXXXXXXXXXXXXXXXXXXXXXXXX...XXXXXXXXXXXXXXXXXXXXXXXXXXXXXXX",
"XXXXXXXXXXXXXXXXXXXXXXXXXXXXXXXXXXXXXXXXXXXXXXXXXXXXXXXXXXXXXXXX"
};
