/* XPM */
static char *sparks32[] = {
/* columns rows colors chars-per-pixel */
"32 32 5 1 ",
"  c black",
". c #FF5555",
"X c #FF5656",
"o c #FF5858",
"O c None",
/* pixels */
"OOOOOOOOOOOOOOOOOOOOOOOOOOOOOOOO",
"OOOOOOOOOOOOOOO.OOOOOOOOOOOOOOOO",
"OOOOOOOOOOOOOOO..OOOOOOOOOOOOOOO",
"OOOOOOOOOOOOOOOO..OOOOOOOOOOOOOO",
"OOOOOOOOOOOOOOOO...OOOOOOOOOOOOO",
"OOOOOOOOOOOOOOOOO...OOOOOOOOOOOO",
"OOOOOOOOOOOOOOOOO....OOOOOOOOOOO",
"OOOOOOOOOOOOOOOOO....OOOOOOOOOOO",
"OOOOOOOOOOOOOOOOO.....OOOOOOOOOO",
"OOOOOOOOOOOOOOOOO.....OOOOOOOOOO",
"OOOOOOO.OOOOOOOOO.....OOOOOOOOOO",
"OOOOOOO.OOOOOOOO......OOOOOOOOOO",
"OOOOOOO.OOOOOOOO......OOOOOOOOOO",
"OOOOOO...OOOOOO.......OOOOOOOOOO",
"OOOOOO................OO OOOOOOO",
"OOOOOO................OO OOOOOOO",
"OOOOO................oO   OOOOOO",
"OOOOO................OO   OOOOOO",
"OOOOO................OO   OOOOOO",
"OOOOO...............OO     OOOOO",
"OOOOO...............OO     OOOOO",
"OOOOOO.............OO      OOOOO",
"OOOOOO............OO      OOOOOO",
"OOOOOO............OO      OOOOOO",
"OOOOOOO..........OO      OOOOOOO",
"OOOOOOO.........OO       OOOOOOO",
"OOOOOOOO........OO      OOOOOOOO",
"OOOOOOOOO.......OO     OOOOOOOOO",
"OOOOOOOOOOO.....OO   OOOOOOOOOOO",
"OOOOOOOOOOOO....OO  OOOOOOOOOOOO",
"OOOOOOOOOOOOOO..OO OOOOOOOOOOOOO",
"OOOOOOOOOOOOOOOOOOOOOOOOOOOOOOOO"
};
