/* XPM */
static char *sparks16[] = {
/* columns rows colors chars-per-pixel */
"16 16 9 1 ",
"  c black",
". c #FF5454",
"X c #FF5555",
"o c #FF5656",
"O c #FF5757",
"+ c #FF5A5A",
"@ c #FF6060",
"# c #FF6161",
"$ c None",
/* pixels */
"$$$$$$$$$$$$$$$$",
"$$$$$$$$X$$$$$$$",
"$$$$$$$$XX$$$$$$",
"$$$$$$$$XXX$$$$$",
"$$$$$$$$XXX$$$$$",
"$$$$$$$$XXX$$$$$",
"$$$X$$$$XXX$$$$$",
"$$XXXXXXXX+$ $$$",
"$$XXXXXXXX#$ $$$",
"$$XXXXXXXX$   $$",
"$$XXXXXXX#$   $$",
"$$$XXXXX+$   $$$",
"$$$$XXXX$    $$$",
"$$$$XXX+$   $$$$",
"$$$$$$X+$ $$$$$$",
"$$$$$$$$$$$$$$$$"
};
